<svg width="640" height="720" fill="none" xmlns="http://www.w3.org/2000/svg"><g clip-path="url('#clip0_2_17')"><path fill-rule="evenodd" clip-rule="evenodd" d="M302.397 673.513c-99.833 1.265-211.11-20.038-264.98-104.022-52.193-81.372-7.366-182.624 22.075-274.675 27.832-87.02 54.946-180.918 136.718-221.809 87.696-43.853 194.098-34.74 279.312 13.767 83.871 47.743 137.713 134.937 149.957 230.589 11.639 90.931-27.362 177.882-88.978 245.804-60.959 67.199-143.328 109.196-234.104 110.346Z" fill="#A5DEFF"/><g clip-path="url('#clip1_2_17')"><ellipse cx="155.453" cy="178.368" rx="13.074" ry="20.544" transform="rotate(-5.631 155.453 178.368)" fill="#0D070C"/><ellipse rx="13.074" ry="20.544" transform="scale(-1 1) rotate(24.369 -466.2 -597.821)" fill="#0D070C"/><path fill-rule="evenodd" clip-rule="evenodd" d="M203.969 88.602c-24.875 6.988-70.018 30.943-51.587 70.863 12.355 26.761 5.896 38.822-1.086 51.859-6.038 11.272-12.466 23.275-7.459 46.142 4.547 20.771 14.005 33.623 23.445 46.45 12.971 17.627 25.909 35.208 26.024 73.228.159 52.55 38.788 191.664 58.083 254.653l91.555-24.533L203.969 88.602Zm.242.902c25.036-6.386 76.109-8.212 80.107 35.576 2.668 29.207 18.08 37.656 34.201 46.494 14.09 7.723 28.722 15.744 35.86 38.179 6.679 20.989 1.945 36.477-2.8 52.003-6.131 20.058-12.28 40.178 6.137 72.301 26.137 45.59 62.241 185.381 77.025 249.577l-91.555 24.532L204.211 89.504Z" fill="#fff"/><ellipse rx="31.596" ry="44.505" transform="scale(-1 1) rotate(40.381 -458.852 -104.815)" fill="url('#paint0_radial_2_17')"/><ellipse rx="31.596" ry="44.505" transform="scale(-1 1) rotate(-17.75 590.173 1158.25)" fill="url('#paint1_radial_2_17')"/><path d="M407.705 477.095c-58.533 46.399-148.133 59.325-185.013 53.796l6.258 21.624c84.844 18.11 158.013-28.823 184.934-53.974l-6.179-21.446Z" fill="#005BBB"/><path d="M413.884 497.814c-69.17 58.768-148.2 59.492-185.187 54.392l5.262 16.85c85.195 17.121 159.687-21.791 186.104-47.252l-6.179-23.99Z" fill="#FFD500"/><ellipse opacity=".5" cx="285.679" cy="132.716" rx="5.861" ry="9.21" transform="rotate(9.05 285.679 132.716)" fill="#fff"/><ellipse opacity=".5" cx="152.643" cy="170.518" rx="5.861" ry="9.21" transform="rotate(9.05 152.643 170.518)" fill="#fff"/><path d="M332.873 567.344C172.646 598.536 207 815.691 244.205 920.37c187.394 61.3 537.098 123.71 436.766-117.031-100.332-240.745-232.207-268.804-285.603-252.741l-62.495 16.746Z" fill="#fff"/><path d="M406.251 473.46c47.961-5.483 126.636 9.46 59.288 104.105-66.852 93.948-79.794 153.02-43.903 141.398.259-.097.528-.187.806-.27-.271.094-.54.184-.806.27-9.977 3.728-5.414 17.181-10.568 22.638-39.95 6.352-40.694-47.343 48.534-165.136 21.474-31.318 35.818-92.299-48.846-89.015l-4.505-13.99Z" fill="#FFD500"/><path d="M399.839 453.208c48.888-11.167 102.22-15.556 47.883 85.626-53.78 100.145 3.268 92.653 39.534 76.01.343-.178.716-.351 1.12-.52-.371.174-.745.347-1.12.52-8.93 4.613 1.886 11.941-2.513 17.856-40.428 11.055-105.701 7.687-43.366-94.232 17.139-33.384 49.682-87.155-37.671-73.731l-3.867-11.529Z" fill="#005BBB"/><path d="M180.678 205.54c-19.708-62.008 37.708-88.626 37.66-87.782 64.903 0 73.958 55.574 73.958 64.158 0 23.624 41.944 33.268 37.126 59.177-4.818 25.909 8.149 73.709 8.071 109.501-.062 28.633-10.864 36.426-16.257 36.743-4.316 1.292-7.186 1.69-16.237 4.351-35.848 10.538-50.783-36.182-96.405-81.965-45.621-45.783-3.28-26.674-27.916-104.183Z" fill="#FF6B0A"/><path d="M298.836 368.686c-29.542 5.209-56.031-56.367-65.583-87.806 16.693-8.662 53.682-24.439 68.103-18.248 18.025 7.738 34.407 99.544-2.52 106.054Z" fill="#1F0C02"/><path d="M302.524 358.997c19.528-7.939 1.303-50.461-10.251-70.729l-39.238 10.514c8.359 23.38 29.96 68.155 49.489 60.215Z" fill="#724B3B"/><path d="M296.046 343.768c3.372-4.1-14.45-46.234-23.782-66.788l-8.373 3.231c9.313 22.894 28.783 67.656 32.155 63.557Z" fill="#6B3B28"/><path d="M215.001 259.667c8.366-46.713-9.163-66.67-18.973-70.808 19.577-48.171 60.775-34.17 78.927-21.149-12.125 46.754-3.688 9.689 27.993 68.392 25.345 46.962-3.191 72.88-20.627 79.969-25.926.663-75.685-9.69-67.32-56.404Z" fill="#ED5E00"/><path d="M311.021 256.373c-63.005-50.406-84.791 4.674-87.809 38.514 7.593 11.5 30.278 31.815 60.27 21.072 29.992-10.744 30.856-44.2 27.539-59.586Z" fill="#FF8E3D"/><path d="M257.359 262.276c-1.939-5.21-6.397-14.612-8.724-10.541-2.326 4.071 4.847 8.724 8.724 10.541ZM267.531 259.57c-1.774-5.268-4.23-15.38.14-13.682 4.371 1.698 1.728 9.829-.14 13.682Z" fill="#FD7411"/><path d="m227.918 41.279 16.356 44.708c-18.61 30.824-67.365 34.41-89.416 32.35l-15.994-45.799 89.054-31.26Z" fill="#373500"/><path d="M244.274 85.987c.849 26.292-17.011 67.462-89.417 31.986l89.417-31.986Z" fill="#373500"/><ellipse cx="183.5" cy="56.888" rx="47.27" ry="8.148" transform="rotate(-19.031 183.5 56.888)" fill="#373500"/><path d="m227.918 41.279 16.356 44.708c-18.61 30.824-67.365 34.41-89.416 32.35l-15.994-45.799s7.691-.964 12.359-2.544c5.592-1.893 13.449-6.906 13.449-6.906l38.529 31.26V47.82s8.383 1.388 13.449 0c4.907-1.344 11.268-6.542 11.268-6.542Z" fill="#4B4800"/><path d="M182.569 64.127c.293.045.534.068.762.13 1.896.461 3.308 1.406 4.414 3.202.469.761.864 1.593 1.285 2.38.37.696.734 1.38 1.116 2.07.102.178.111.272-.069.4-.39.252-.648.65-.633 1.187.005.475.219.825.567 1.039.353.228.731.195 1.095.022.179-.094.265-.237.284-.478a14.664 14.664 0 0 0-.516-5.368c-.414-1.448-1.068-2.772-1.668-4.107-.339-.763-.659-1.551-1.022-2.302-.223-.477-.398-.946-.484-1.478a3.939 3.939 0 0 1 .067-1.617c.46.205.84.535 1.117.967.253.411.471.875.665 1.317.211.484.362.998.543 1.48.478 1.284.944 2.574 1.458 3.839.868 2.101 2.135 3.83 3.814 5.147.219.182.413.163.629.017a1.404 1.404 0 0 0 .529-1.693c-.232-.571-.884-.857-1.457-.591-.208.092-.253.017-.307-.186-.296-1.05-.609-2.106-.916-3.148-.339-1.191-.738-2.351-.763-3.624-.031-1.681.376-3.031 1.174-4.453.062-.098.123-.196.21-.34l.116.286 6.325 15.572c.121.3.121.3-.13.43l-2.843 1.483c-.167.088-.217.18-.176.389.311 1.584.152 3.118-.523 4.558-.137.302-.229.647-.344.97-.825-.426-1.776-.523-2.567-1.116-.647-.487-1.238-1.052-1.69-1.772-.108-.158-.202-.175-.345-.1l-2.891 1.508c-.168.087-.256.084-.344-.134l-6.364-15.667c-.035-.015-.057-.07-.118-.219ZM184.604 66c-.019.026-.054.044-.073.07l.116.286 3.016 7.426c.172.421.172.421.554.222.143-.075.198-.153.168-.335a2.344 2.344 0 0 1 .366-1.559c.123-.196.097-.33-.004-.509-.489-.882-.995-1.772-1.448-2.673-.481-.935-.971-1.57-1.749-2.203-.311-.266-.629-.479-.946-.725Zm9.861-5.095c-.024.012-.041.005-.065.017-.027.146-.055.293-.071.433-.134 1.059-.257 1.897.016 2.925.354 1.299.732 2.585 1.097 3.878.043.175.123.266.305.286.499.053.935.27 1.295.693.165.193.319.18.602-.05.174-.141.036-.267-.013-.39l-3.072-7.561a.761.761 0 0 0-.094-.231Zm-3.073 14.854c-.066.018-.143.042-.238.058-.83.203-1.586.086-2.184-.673-.086-.104-.156-.133-.258-.064l-.251.131c-.119.063-.145.142-.09.278.415 1.02.835 2.054 1.261 3.067.022.055.167.127.215.102a54.359 54.359 0 0 0 1.947-1.016c.048-.024.105-.17.095-.23-.162-.542-.324-1.084-.497-1.653Zm5.113-2.667c.269.519.539 1.005.802 1.51.073.143.168.093.264.044.609-.318 1.201-.643 1.816-.948.191-.1.218-.212.123-.41-.382-.905-.74-1.822-1.116-2.747-.171-.422-.171-.422-.542-.229-.107.056-.203.106-.178.275.111.914-.226 1.617-.801 2.198-.127.115-.265.204-.368.307Zm-4.091-2.514c.091 1.222.171 2.416.044 3.636.486.093.943.184 1.407.255.064.016.173-.073.216-.145.222-.38.409-.774.632-1.154.068-.118.064-.198-.046-.29-.779-.599-1.442-1.34-2.08-2.128-.064-.05-.121-.118-.173-.174Zm1.15 7.427c.239.732 1.471 1.804 1.937 1.775l.013-.04c-.288-.707-.563-1.42-.857-2.108-.022-.054-.139-.092-.192-.08-.31.128-.603.297-.901.453Zm2.951 1.279c.376-.608.382-2.375.078-2.876l-.813.424c-.155.081-.175.174-.109.338l.696 1.713c.038.129.088.251.148.4Zm-2.97-2.571c.156-.081.328-.155.473-.263.047-.025.099-.184.07-.218-.314-.561-.859-.904-1.416-.778-.119.029-.167.087-.141.222.101.392.214.778.321 1.184.043.142.137.16.245.103.138-.088.293-.17.448-.25Zm2.199-1.147.418-.218c.149-.061.205-.173.109-.338a29.578 29.578 0 0 0-.534-.957c-.09-.15-.178-.154-.299-.025-.394.386-.573 1.156-.37 1.692.022.055.144.106.198.095.173-.073.322-.168.478-.25Z" fill="#FFD500"/></g></g><defs><radialGradient id="paint0_radial_2_17" cx="0" cy="0" r="1" gradientUnits="userSpaceOnUse" gradientTransform="matrix(0 44.505 -31.5961 0 31.596 44.505)"><stop stop-color="#FBB"/><stop offset="1" stop-color="#FBB" stop-opacity="0"/></radialGradient><radialGradient id="paint1_radial_2_17" cx="0" cy="0" r="1" gradientUnits="userSpaceOnUse" gradientTransform="matrix(0 44.505 -31.5961 0 31.596 44.505)"><stop stop-color="#FBB"/><stop offset="1" stop-color="#FBB" stop-opacity="0"/></radialGradient><clipPath id="clip0_2_17"><path fill="#fff" d="M0 0h640v720H0z"/></clipPath><clipPath id="clip1_2_17"><path fill="#fff" transform="translate(32 17.263)" d="M0 0h637v735H0z"/></clipPath></defs></svg>