<svg width="374" height="374" fill="none" xmlns="http://www.w3.org/2000/svg"><path fill-rule="evenodd" clip-rule="evenodd" d="M77.379 120.369c16.515-33.73 47.128-48.767 84.462-52.601 36.174-3.714 77.701 15.761 103.608 41.265 24.49 24.109 51.412 49.144 51.264 83.534-.159 36.881-21.273 71.055-52.016 91.431-30.259 20.055-68.667 23.335-102.856 11.215-32.501-11.522-63.953-24.735-76.3-56.946-12.215-31.867-23.18-87.229-8.162-117.898Z" fill="url('#paint0_linear_104_190')"/><path stroke="#FF6B0A" stroke-width="3" stroke-linecap="round" d="m193.68 285.464-.867 30.05M178.483 323.775l16.064-8.754M188.296 325.367l6.926-9.914M174.168 316.892l18.747-2.091"/><path d="M141.443 252.506c10.918 41.286 55.193 97.009 144.946-10.394-52.9-23.474-155.949-54.259-144.946 10.394Z" fill="url('#paint1_linear_104_190')"/><path d="M181.364 160.926c8.317-19.962-3.466-27.725-10.397-29.111-5.198 3.466-23.705 10.397-14.555 10.397 9.149 0 6.584 12.476 4.158 18.714-44.914 60.718-18.714 94.611-5.198 103.968 15.595-6.238 41.587-20.585 20.794-28.071-25.992-9.357-5.199-50.944 5.198-75.897Z" fill="url('#paint2_linear_104_190')"/><ellipse rx="10.095" ry="29.209" transform="scale(-1 1) rotate(89.482 -245.957 47.627)" fill="url('#paint3_radial_104_190')"/><path d="M210.574 295.361v24.444M193.933 328.651l16.064-8.754M203.745 330.244l6.927-9.915M189.618 321.769l18.747-2.092" stroke="#FF6B0A" stroke-width="3" stroke-linecap="round"/><path d="M211.107 183.891c-63.833 20.619-50.623 41.43-36.039 49.259 4.206 6.823 17.426-2.334 23.51-7.765.112-3.274 2.22-11.014 9.759-15.784 7.539-4.769 5.366-6.756 3.337-7.154 10.561-8.857 4.765-8.269.547-6.868 33.805-18.323 10.786-15.784-1.114-11.688Z" fill="#D9D9D9"/><path d="M213.426 185.035c-64.649 22.032-50.743 42.662-35.709 50.223 4.432 6.766 17.718-2.705 23.807-8.286.045-3.29 2.032-11.108 9.618-16.055 7.587-4.947 5.329-6.898 3.252-7.255 10.582-9.115 4.685-8.404.414-6.91 27.808-19.837 10.666-16.076-1.382-11.717Z" fill="#FAFAFA"/><path d="M145.245 157.198c19.54 10.775 28.611 4.489 30.703 0 14.268-8.484 10.958-37.438-13.468-37.438-24.426 0-41.661 23.969-17.235 37.438Z" fill="#fff"/><path d="m158.631 149.292-3.112-2.003a26.5 26.5 0 0 0-18.872-3.832.946.946 0 0 0-.757.706l-6.306 25.539c-.456 1.846 1.679 3.227 3.176 2.053l25.968-20.371a1.285 1.285 0 0 0-.097-2.092Z" fill="#DF5B04"/><path d="m159.185 149.143-2.55-1.586a29.342 29.342 0 0 0-20.163-4.052 1.05 1.05 0 0 0-.681.419l-15.698 21.598c-1.214 1.671.592 3.862 2.463 2.988l36.489-17.024a1.335 1.335 0 0 0 .14-2.343Z" fill="#FF6B0A"/><circle cx="136.684" cy="136.881" r="2.511" fill="#797979"/><circle cx="162.48" cy="139.392" r="2.511" fill="#797979"/><path d="m144.282 105.519.569-2.999 35.853 6.799-3.084 16.265-1.26-.238-29.901-3.772-4.693-2.788 2.144-11.307-.176-.009.026-1.954.522.003Z" fill="#0C0632"/><ellipse cx="162.193" cy="109.018" rx="18.77" ry="1.865" transform="rotate(10.738 162.193 109.018)" fill="#0C0632"/><path d="M141.342 118.759c-12.215.704-23.81 16.513 27.146 8.169l-27.146-8.169Z" fill="#0C0632"/><path d="M141.258 118.627c1.901 5.658 32.728 11.201 36.894 6.996l2.445-13.08c-5.437.735-15.109-4.172-23.471-2.738l-10.682 9.503-2.684-13.792-2.502 13.111Z" fill="#494600"/><ellipse cx="162.73" cy="106.148" rx="18.242" ry="1.865" transform="rotate(10.738 162.73 106.148)" fill="#0C0632"/><ellipse cx="162.459" cy="109.068" rx="18.499" ry="1.865" transform="rotate(10.738 162.459 109.068)" fill="#0C0632"/><path d="M148.222 107.614c.054.069.101.123.138.181.319.477.446.942.353 1.502-.039.237-.107.472-.161.704-.048.205-.095.406-.14.612-.011.054-.026.073-.088.06-.129-.034-.256-.014-.35.088a.297.297 0 0 0-.07.309c.034.115.12.187.229.23.055.02.099.011.147-.03a3.34 3.34 0 0 0 .869-1.096c.176-.353.279-.732.395-1.103.067-.21.143-.422.203-.635.039-.134.088-.257.166-.373a.909.909 0 0 1 .309-.284c.061.132.081.272.061.408a2.567 2.567 0 0 1-.099.381c-.043.133-.105.259-.154.385-.133.336-.269.67-.391 1.009a3.261 3.261 0 0 0-.129 1.737c.014.078.058.115.131.133.181.048.362-.039.421-.204.055-.153-.032-.34-.202-.409-.061-.026-.057-.049-.031-.098.129-.254.255-.514.379-.77.146-.29.272-.586.499-.826.3-.317.633-.482 1.061-.579l.107-.02-.028.077-1.496 4.178c-.029.081-.029.081-.106.053l-.874-.313c-.052-.018-.079-.012-.108.035a1.667 1.667 0 0 1-.942.733c-.084.028-.167.073-.25.109-.097-.249-.282-.464-.341-.736a1.833 1.833 0 0 1-.036-.676c.006-.051-.011-.074-.055-.089l-.889-.319c-.051-.018-.069-.037-.048-.095l1.505-4.204c-.004-.01.001-.025.015-.065Zm.091.765c-.009.001-.02-.003-.028-.002l-.028.077-.714 1.993c-.04.113-.04.113.077.155.045.016.07.013.097-.027a.55.55 0 0 1 .362-.212c.062-.011.081-.041.092-.095.057-.264.112-.532.18-.792.068-.272.08-.49.03-.767-.017-.114-.046-.219-.068-.33Zm3.022 1.095c-.008-.003-.01-.008-.018-.01-.032.021-.064.042-.093.065-.222.168-.401.297-.53.543-.162.313-.316.628-.474.942-.023.041-.023.074.012.116a.588.588 0 0 1 .149.394c-.001.07.035.099.137.115.062.01.056-.041.068-.074l.726-2.029a.181.181 0 0 0 .023-.062Zm-3.361 2.107c-.017-.01-.038-.022-.061-.039-.213-.133-.352-.311-.341-.575.001-.036-.008-.056-.043-.064a1.746 1.746 0 0 0-.077-.028c-.037-.013-.056-.004-.07.033-.098.273-.197.551-.291.826-.005.014.012.058.027.063.197.075.399.147.598.214.015.006.054-.009.062-.023l.196-.407Zm1.572.563c-.038.151-.069.296-.105.444-.011.041.018.052.048.062.187.067.372.129.558.2.058.021.085.006.101-.05.083-.246.175-.489.264-.737.04-.114.04-.114-.074-.154-.033-.012-.062-.023-.088.014-.143.191-.342.251-.57.24-.048-.005-.094-.017-.134-.019Zm-.41-1.308c-.204.244-.404.481-.654.68.087.117.167.228.252.337.011.016.05.022.073.018.116-.025.228-.059.344-.083.036-.008.05-.023.043-.063a3.532 3.532 0 0 1-.053-.822c-.005-.022-.004-.046-.005-.067Zm-1.11 1.607c-.083.185-.017.637.087.727l.01-.004c.068-.19.14-.378.203-.566.005-.014-.013-.046-.026-.054-.089-.041-.183-.07-.274-.103Zm.393.845c.191-.034.514-.359.541-.514l-.25-.09c-.048-.017-.069-.004-.085.04l-.164.46a.802.802 0 0 0-.042.104Zm-.162-1.087c.048.017.098.039.149.049.014.005.054-.013.054-.026.036-.168-.017-.344-.158-.435-.031-.02-.052-.019-.071.011-.05.094-.096.188-.148.285-.016.035.001.058.034.07.045.012.093.029.14.046Zm.676.242.129.046c.042.019.075.01.084-.04.022-.095.044-.19.062-.287.008-.046-.01-.065-.06-.066-.153-.01-.332.095-.387.236-.005.015.012.049.025.058.05.022.099.036.147.053Z" fill="#FFD500"/><ellipse cx="170.463" cy="150.669" rx="9.32" ry="10.173" transform="rotate(40.381 170.463 150.669)" fill="url('#paint4_radial_104_190')"/><ellipse cx="235.259" cy="173.966" rx="39.463" ry="54.059" transform="rotate(-49.528 235.259 173.966)" fill="#C4C4C4"/><ellipse cx="238.417" cy="170.265" rx="34.598" ry="54.059" transform="rotate(-49.528 238.417 170.265)" fill="#fff"/><path d="m225.282 171.566 32.976-27.03-18.921 36.76c-9.947 1.298-13.514-5.946-14.055-9.73Z" fill="#C4C4C4"/><ellipse cx="258.637" cy="144.536" rx="9.174" ry="12.568" transform="rotate(-49.528 258.637 144.536)" fill="#C4C4C4"/><ellipse cx="259.371" cy="143.676" rx="8.043" ry="12.568" transform="rotate(-49.528 259.371 143.676)" fill="#fff"/><path d="m256.096 143.803 9.73-7.916-5.583 10.766c-2.935.38-3.988-1.741-4.147-2.85Z" fill="#C4C4C4"/><path d="M238.136 194.702c-63.833 20.619-50.623 41.431-36.039 49.259 4.206 6.823 17.426-2.333 23.511-7.764.111-3.274 2.219-11.014 9.758-15.784 7.54-4.769 5.366-6.757 3.337-7.154 10.561-8.857 4.765-8.269.548-6.869 33.805-18.322 10.786-15.783-1.115-11.688Z" fill="#D9D9D9"/><path d="M240.456 195.847c-64.649 22.032-50.744 42.662-35.71 50.223 4.432 6.766 17.718-2.705 23.808-8.286.045-3.29 2.031-11.108 9.618-16.055 7.586-4.947 5.329-6.898 3.252-7.255 10.581-9.115 4.684-8.405.413-6.91 27.809-19.837 10.666-16.077-1.381-11.717Z" fill="#F8F8F8"/><defs><linearGradient id="paint0_linear_104_190" x1="75.732" y1="122.76" x2="298.268" y2="251.24" gradientUnits="userSpaceOnUse"><stop stop-color="#A5DEFF"/><stop offset="1" stop-color="#BDE7FF"/></linearGradient><linearGradient id="paint1_linear_104_190" x1="174.142" y1="257.077" x2="290.366" y2="239.521" gradientUnits="userSpaceOnUse"><stop stop-color="#F2F2F2"/><stop offset="1" stop-color="#fff"/></linearGradient><linearGradient id="paint2_linear_104_190" x1="159.814" y1="131.815" x2="159.814" y2="264.894" gradientUnits="userSpaceOnUse"><stop stop-color="#fff"/><stop offset="1" stop-color="#F2F2F2"/></linearGradient><radialGradient id="paint3_radial_104_190" cx="0" cy="0" r="1" gradientUnits="userSpaceOnUse" gradientTransform="matrix(0 29.2087 -10.0949 0 10.095 29.209)"><stop stop-color="#D7D7D7"/><stop offset="1" stop-color="#D7D7D7" stop-opacity="0"/></radialGradient><radialGradient id="paint4_radial_104_190" cx="0" cy="0" r="1" gradientUnits="userSpaceOnUse" gradientTransform="matrix(0 10.1731 -9.32012 0 170.463 150.669)"><stop stop-color="#FBB"/><stop offset="1" stop-color="#FBB" stop-opacity="0"/></radialGradient></defs></svg>