<svg width="374" height="374" fill="none" xmlns="http://www.w3.org/2000/svg"><path fill-rule="evenodd" clip-rule="evenodd" d="M300.389 230.287c-10.316 35.529-29.868 72.681-65.451 82.723-34.476 9.729-65.538-17.081-94.997-37.445-27.849-19.25-58.213-38.988-63.892-72.387-6.09-35.819 8.613-72.557 34.999-97.537 25.97-24.586 62.688-34.271 97.918-28.297 33.492 5.679 60.112 28.881 77.548 58.05 17.249 28.857 23.256 62.587 13.875 94.893Z" fill="url('#paint0_linear_104_278')"/><path d="M307.065 207.233c-155.432-18.077-146.382 28.91-122.428 54.663 2.701 15.3 39.396 10.618 57.405 6.364 3.256-5.551 14.895-17.127 35.405-19.018 20.51-1.89 17.697-7.143 13.726-9.533 30.735-6.4 17.807-10.256 7.501-11.384 89.139-3.193 37.601-18.155 8.391-21.092Z" fill="#D9D9D9"/><path d="M310.967 209.068c-158.479-16.326-147.774 30.933-122.612 56.603 3.235 15.391 40.361 10.222 58.52 5.714 3.129-5.636 14.58-17.448 35.355-19.605 20.774-2.156 17.747-7.417 13.637-9.778 31.016-6.827 17.759-10.557 7.253-11.568 77.719-10.843 37.614-18.762 7.847-21.366Z" fill="url('#paint1_linear_104_278')"/><path stroke="#FF6B0A" stroke-width="3" stroke-linecap="round" d="m168.577 283.003-26.271 9.798M130.125 298.757l11.501-6.677M132.839 292.06l8.773-.562M134.26 303.099l8.374-10.857"/><path d="M75.722 182.623c156.178 9.736 138.949 54.378 110.813 75.481-5.368 14.58-40.654 3.473-57.625-3.902-2.222-6.041-11.627-19.495-31.477-24.988-19.851-5.493-16.152-10.164-11.821-11.813-29.116-11.743-15.71-13.248-5.366-12.533-87.164-18.929-33.792-24.527-4.524-22.245Z" fill="#D9D9D9"/><path d="M71.187 185.793c158.865 11.999 139.961 56.614 110.65 77.422-5.91 14.575-41.534 2.913-58.607-4.739-2.081-6.102-11.26-19.755-31.324-25.556-20.064-5.802-16.153-10.443-11.69-12.039-29.317-12.213-15.609-13.536-5.09-12.671-74.57-24.435-33.697-25.126-3.939-22.417Z" fill="url('#paint2_linear_104_278')"/><path d="M238.278 241.027c-6.719 31.332-51.917 78.799-178.954 18.019 60.929-26.004 182.02-66.013 178.954-18.019Z" fill="url('#paint3_linear_104_278')"/><path d="M187.249 159.004c-6.045-14.51 2.519-20.152 7.557-21.16 3.779 2.519 17.23 7.557 10.58 7.557s-4.786 9.069-3.023 13.603c32.647 44.133 13.603 68.769 3.779 75.571-11.336-4.534-30.228-14.963-15.114-20.404 18.892-6.802 3.778-37.03-3.779-55.167Z" fill="#fff"/><ellipse cx="180.499" cy="270.751" rx="10.822" ry="41.94" transform="rotate(74.287 180.499 270.751)" fill="url('#paint4_radial_104_278')"/><path stroke="#FF6B0A" stroke-width="3" stroke-linecap="round" d="m153.136 281-27.43 5.812M113.038 292.214l12.198-5.294M116.512 285.878l8.779.462M116.64 297.008l9.579-9.81"/><path d="M228.694 166.772c-21.431 11.817-31.379 4.924-33.674 0-15.648-9.304-12.018-41.061 14.771-41.061 26.79 0 45.693 26.289 18.903 41.061Z" fill="#fff"/><path d="m214.013 158.101 3.412-2.197a29.065 29.065 0 0 1 20.698-4.203c.406.071.732.374.831.774l7.051 28.556c.456 1.846-1.68 3.227-3.176 2.053l-28.923-22.688a1.41 1.41 0 0 1 .107-2.295Z" fill="#DF5B04"/><path d="m213.404 157.938 2.797-1.74a32.18 32.18 0 0 1 22.114-4.444c.3.049.568.214.747.459l17.657 24.294c1.215 1.671-.592 3.862-2.463 2.989l-40.698-18.989c-1.053-.492-1.141-1.956-.154-2.569Z" fill="#FF6B0A"/><circle r="2.754" transform="matrix(-1 0 0 1 238.082 144.489)" fill="#797979"/><circle r="2.754" transform="matrix(-1 0 0 1 209.791 147.243)" fill="#797979"/><path d="m229.749 110.093-.624-3.29-39.322 7.457 3.383 17.84 1.382-.263 32.794-4.136 5.146-3.058-2.351-12.401.193-.01-.029-2.143-.572.004Z" fill="#0C0632"/><ellipse rx="20.586" ry="2.046" transform="scale(-1 1) rotate(10.738 -711.2 -1060.867)" fill="#0C0632"/><path d="M232.973 124.614c13.398.772 26.115 18.11-29.772 8.959l29.772-8.959Z" fill="#0C0632"/><path d="M233.066 124.469c-2.085 6.205-35.894 12.285-40.464 7.673l-2.681-14.346c5.963.806 16.57-4.576 25.742-3.003l11.715 10.423 2.944-15.127 2.744 14.38Z" fill="#494600"/><ellipse rx="20.007" ry="2.046" transform="scale(-1 1) rotate(10.738 -694.157 -1059.308)" fill="#0C0632"/><ellipse rx="20.289" ry="2.046" transform="scale(-1 1) rotate(10.738 -711.347 -1059.286)" fill="#0C0632"/><path d="M225.427 112.39c-.059.076-.11.135-.151.199-.349.523-.489 1.033-.387 1.647.043.26.117.518.176.772.054.225.106.446.155.672.012.059.028.08.096.065.141-.037.281-.015.384.097a.325.325 0 0 1 .076.339.39.39 0 0 1-.25.252c-.061.022-.11.012-.162-.033a3.674 3.674 0 0 1-.953-1.202c-.193-.387-.306-.803-.433-1.209-.074-.231-.157-.463-.222-.697a1.448 1.448 0 0 0-.183-.409.998.998 0 0 0-.339-.312.797.797 0 0 0-.067.448c.023.141.065.284.109.417.047.146.115.284.169.423.146.368.295.734.428 1.107.219.621.269 1.258.142 1.904-.015.087-.064.127-.143.146-.199.053-.397-.043-.462-.223-.06-.168.034-.373.221-.449.067-.029.062-.054.034-.107-.141-.279-.279-.564-.416-.845-.159-.318-.298-.642-.547-.906-.329-.347-.693-.528-1.163-.635l-.117-.021.03.084 1.641 4.582c.032.088.032.088.116.058l.959-.343c.056-.02.086-.013.118.039.245.391.588.665 1.033.804.093.03.183.079.274.118.107-.273.309-.508.375-.807.053-.245.078-.493.039-.741-.007-.056.012-.081.06-.098l.975-.349c.056-.02.076-.041.053-.105l-1.651-4.611c.005-.011-.001-.027-.017-.071Zm-.099.84c.01.001.022-.003.031-.002l.03.084.783 2.185c.044.124.044.124-.084.17-.049.018-.077.014-.107-.03a.606.606 0 0 0-.396-.232c-.068-.012-.089-.045-.101-.104-.063-.289-.123-.584-.198-.869a1.839 1.839 0 0 1-.033-.841c.019-.124.051-.24.075-.361Zm-3.314 1.2c.008-.003.011-.008.019-.011.035.023.071.047.103.072.243.183.439.325.581.595.177.343.347.689.52 1.033.025.045.025.082-.014.127a.65.65 0 0 0-.163.433c.001.077-.038.109-.15.126-.069.011-.062-.045-.075-.081l-.797-2.226a.206.206 0 0 1-.024-.068Zm3.686 2.311c.018-.011.041-.024.066-.042.234-.147.387-.342.374-.631-.001-.04.01-.062.048-.071l.084-.03c.04-.015.062-.004.077.036.107.3.216.604.319.906.006.016-.013.063-.029.069-.216.082-.438.161-.657.235-.016.006-.058-.011-.068-.025l-.214-.447Zm-1.724.617c.041.166.076.325.115.487.012.046-.02.057-.052.069-.206.073-.409.141-.612.219-.065.023-.094.006-.111-.055-.092-.27-.192-.537-.29-.809-.044-.124-.044-.124.081-.168.036-.013.068-.025.096.015.157.21.376.276.626.263.053-.005.102-.018.147-.021Zm.45-1.434c.223.268.443.527.716.745-.094.129-.182.251-.276.37-.012.018-.055.025-.079.02-.128-.027-.25-.064-.378-.091-.039-.008-.055-.025-.047-.069.061-.297.067-.597.058-.901.005-.024.005-.051.006-.074Zm1.217 1.763c.091.202.018.698-.096.797a.174.174 0 0 1-.011-.005c-.074-.208-.153-.415-.222-.62-.006-.016.014-.05.029-.06.097-.044.199-.076.3-.112Zm-.431.927c-.209-.039-.564-.395-.593-.565l.274-.098c.052-.019.075-.004.092.044l.181.504c.017.034.03.071.046.115Zm.177-1.193c-.052.019-.107.043-.163.054-.016.006-.059-.015-.06-.028-.039-.185.02-.378.175-.478.033-.021.056-.02.077.013.055.102.105.206.162.312.018.039 0 .063-.037.076a2.306 2.306 0 0 0-.154.051Zm-.741.266-.141.05c-.047.021-.082.011-.093-.044a7.938 7.938 0 0 1-.067-.314c-.009-.051.011-.072.065-.073.168-.011.364.104.424.259.006.016-.012.054-.027.064-.055.024-.109.039-.161.058Z" fill="#FFD500"/><ellipse rx="10.222" ry="11.157" transform="scale(-1 1) rotate(40.381 -317.534 -193.533)" fill="url('#paint5_radial_104_278')"/><defs><linearGradient id="paint0_linear_104_278" x1="301.374" y1="229.162" x2="81.921" y2="148.838" gradientUnits="userSpaceOnUse"><stop stop-color="#A5DEFF"/><stop offset="1" stop-color="#BDE7FF"/></linearGradient><linearGradient id="paint1_linear_104_278" x1="252.066" y1="203.949" x2="259.673" y2="271.347" gradientUnits="userSpaceOnUse"><stop stop-color="#fff"/><stop offset="1" stop-color="#F5F5F5"/></linearGradient><linearGradient id="paint2_linear_104_278" x1="130.063" y1="191.186" x2="110.641" y2="256.172" gradientUnits="userSpaceOnUse"><stop stop-color="#fff"/><stop offset="1" stop-color="#F9F9F9"/></linearGradient><linearGradient id="paint3_linear_104_278" x1="186.299" y1="225.293" x2="111.066" y2="276.421" gradientUnits="userSpaceOnUse"><stop stop-color="#fff"/><stop offset="1" stop-color="#F5F5F5"/></linearGradient><radialGradient id="paint4_radial_104_278" cx="0" cy="0" r="1" gradientUnits="userSpaceOnUse" gradientTransform="matrix(0 41.9399 -10.8225 0 180.499 270.751)"><stop stop-color="#E8E8E8"/><stop offset="1" stop-color="#EFEFEF" stop-opacity=".5"/></radialGradient><radialGradient id="paint5_radial_104_278" cx="0" cy="0" r="1" gradientUnits="userSpaceOnUse" gradientTransform="matrix(0 11.1574 -10.2219 0 10.222 11.157)"><stop stop-color="#FBB"/><stop offset="1" stop-color="#FBB" stop-opacity="0"/></radialGradient></defs></svg>