<svg aria-hidden="true" style="width:0;height:0;position:absolute;overflow:hidden" xmlns="http://www.w3.org/2000/svg"><defs><symbol id="icon-tryzub" viewBox="0 0 20 32"><path fill="#f2cd13" style="fill:var(--color17,#f2cd13)" d="M18.41 3.193c-5.395 4.898-4.565 12.517-4.527 12.844l.075.617.641.073c.189.036 1.283.254 1.132 1.887-.113 1.415-1.773 1.633-2.452 1.705-.566-.726-2.414-3.737-2.603-12.372V6.641s.151-3.084.302-4.39L9.884.002 8.752 2.179c.151 1.306.302 4.39.302 4.39v1.306c-.189 8.635-2.037 11.683-2.603 12.372-.717-.036-2.339-.29-2.452-1.705-.151-1.633.943-1.85 1.132-1.887l.641-.073.075-.617c.038-.327.868-7.946-4.527-12.844L0 1.996V25.47h5.47c.453 3.447 3.735 6.023 3.886 6.131l.49.399.49-.399c.151-.109 3.471-2.685 3.886-6.131h5.47V1.996l-1.283 1.197zM4.338 15.347c-.792.29-1.735 1.052-1.886 2.503h-.868V5.732c2.754 3.556 2.792 8.091 2.754 9.615zm1.019 7.873.038.726h-3.81v-4.608h.981c.415 1.451 1.773 2.068 3.018 2.322-.226.726-.226 1.451-.226 1.56zm1.584-.036c0-.399.038-.98.226-1.342 1.396.29 1.773 1.379 1.886 2.141H6.978l-.038-.798zm2.151 6.022c-.792-.907-1.735-2.213-1.999-3.737h1.999v3.737zm.98-7.655a2.034 2.034 0 0 0-.226.29c-.075-.109-.151-.181-.226-.29-.415-.435-.905-.798-1.471-1.016.528-.871 1.169-2.322 1.698-4.753.528 2.431 1.169 3.918 1.698 4.753a3.669 3.669 0 0 0-1.471 1.016zm.566 7.619v-3.701h1.999c-.226 1.488-1.169 2.794-1.999 3.701zm2.151-5.986-.038.762h-2.075c.113-.762.49-1.85 1.886-2.141.189.399.226.98.226 1.379zm2.603-7.837c-.075-1.488 0-6.023 2.754-9.615V17.85h-.868c-.151-1.488-1.056-2.213-1.886-2.503zm-1.057 8.599.038-.726c0-.109.038-.834-.189-1.56 1.207-.218 2.565-.871 3.018-2.322h.981v4.608h-3.848z"/></symbol><symbol id="icon-logo" viewBox="0 0 100 32"><path fill="#ff6b0a" style="fill:var(--color6,#ff6b0a)" d="M43.846 1.104H0v30h43.846l11.538-15-11.538-15zM19.657 14.075l-.202-.163a18.452 18.452 0 0 0-.506-.4c-.466-.356-.972-.639-1.553-.765-.641-.14-1.288-.191-1.928.003-.912.276-1.547.876-1.967 1.713-.348.696-.441 1.434-.35 2.201.073.601.266 1.158.621 1.652.545.759 1.288 1.198 2.217 1.314.836.105 1.646 0 2.413-.366.262-.125.262-.128.262-.417v-.709c.001-.058.001-.088-.013-.104s-.048-.016-.116-.015h-2.546c-.068.001-.101.001-.117-.015s-.014-.046-.013-.105l.001-.07V14.903l.001-.019a.574.574 0 0 0-.001-.072c-.005-.057.015-.088.078-.082.024.002.048.001.073.001l.036-.001h6.146c.04 0 .074.008.068.059-.003.031.017.051.036.072.024.025.049.052.035.097-.012.039-.009.082-.006.125l.003.058v1.105c0 1.474 0 2.948.003 4.422 0 .12-.037.196-.128.271-1.144.947-2.431 1.609-3.887 1.937a8.66 8.66 0 0 1-2.614.177c-1.041-.083-2.03-.349-2.944-.855-1.677-.927-2.733-2.335-3.219-4.172a7.313 7.313 0 0 1-.211-2.473c.255-3.095 2.433-5.51 5.35-6.182.833-.193 1.674-.22 2.522-.163.65.045 1.29.146 1.916.331.937.279 1.764.759 2.516 1.375.088.072.175.145.26.219.108.092.111.145.017.259-.474.57-.948 1.138-1.423 1.706-.237.285-.474.57-.712.853l-.009.012-.009.012c-.026.035-.054.073-.099.1zm12.095-4.894c1.764.014 3.47.634 4.902 1.937 1.112 1.013 1.793 2.276 2.066 3.75.303 1.64.085 3.211-.729 4.675-.966 1.737-2.44 2.851-4.364 3.354-1.655.434-3.297.346-4.881-.311-2.063-.858-3.396-2.398-4.021-4.514-.559-1.893-.356-3.733.644-5.449.974-1.672 2.44-2.72 4.314-3.208.646-.168 1.254-.234 2.069-.236zm-.419 3.522c1.963-.005 3.247 1.1 3.597 2.63.212.922.118 1.819-.336 2.657-.534.984-1.367 1.557-2.488 1.685-1.084.125-2.03-.182-2.803-.961a3.358 3.358 0 0 1-.921-1.794c-.161-.87-.062-1.713.362-2.493.624-1.15 1.621-1.702 2.589-1.723z"/><path fill="#010101" style="fill:var(--color14,#010101)" d="M99.231 1.104v30H55.385v-30h43.846zm-29.462 8.26V22.42l.001.042a.724.724 0 0 1-.001.081c-.006.076.014.12.101.108.021-.002.041-.001.062-.001l.031.001h3.358c.07.001.105.001.121-.016s.015-.048.013-.109l-.001-.073V9.381l-.001-.031a.428.428 0 0 1 .001-.062c.008-.077-.019-.117-.102-.108-.016.002-.034.001-.051.001h-1.135c-.74 0-1.48-.001-2.219 0l-.058-.001c-.061-.001-.091-.001-.107.014s-.015.046-.014.108l.001.06zm18.355-.181h-5.497c-1.832 0-3.664 0-5.494-.002h-.123c-.062-.003-.084.026-.079.083a.434.434 0 0 1 0 .051V12.499c0 .067 0 .1.016.116s.048.015.11.015h3.496c.113 0 .168 0 .196.028s.027.081.027.188v9.639l-.001.049c-.001.055-.001.084.013.099.016.017.049.016.119.016h3.348c.104 0 .155 0 .181-.026s.025-.075.025-.174V12.81l-.001-.056c-.001-.059-.001-.091.014-.107.016-.017.052-.017.125-.017h3.561c.152 0 .152 0 .153-.149V9.313c.001-.068.001-.101-.015-.118s-.049-.016-.115-.015l-.059.001z"/></symbol></defs></svg>