<svg width="640" height="720" viewBox="0 0 640 720" fill="none" xmlns="http://www.w3.org/2000/svg">
<g clip-path="url(#clip0_2_17)">
<path fill-rule="evenodd" clip-rule="evenodd" d="M302.397 673.513C202.564 674.778 91.2866 653.475 37.4176 569.491C-14.7761 488.119 30.0506 386.867 59.4918 294.816C87.3239 207.796 114.438 113.898 196.21 73.0071C283.906 29.154 390.308 38.2668 475.522 86.7741C559.393 134.517 613.235 221.711 625.479 317.363C637.118 408.294 598.117 495.245 536.501 563.167C475.542 630.366 393.173 672.363 302.397 673.513Z" fill="#A5DEFF"/>
<g clip-path="url(#clip1_2_17)">
<ellipse cx="155.453" cy="178.368" rx="13.0738" ry="20.5445" transform="rotate(-5.63119 155.453 178.368)" fill="#0D070C"/>
<ellipse rx="13.0738" ry="20.5445" transform="matrix(-0.910908 0.412609 0.412609 0.910908 288.201 139.097)" fill="#0D070C"/>
<path fill-rule="evenodd" clip-rule="evenodd" d="M203.969 88.6023C179.094 95.5899 133.951 119.545 152.382 159.465C164.737 186.226 158.278 198.287 151.296 211.324C145.258 222.596 138.83 234.599 143.837 257.466C148.384 278.237 157.842 291.089 167.282 303.916C180.253 321.543 193.191 339.124 193.306 377.144C193.465 429.694 232.094 568.808 251.389 631.797L342.944 607.264L203.969 88.6023ZM204.211 89.5043C229.247 83.1181 280.32 81.2924 284.318 125.08C286.986 154.287 302.398 162.736 318.519 171.574C332.609 179.297 347.241 187.318 354.379 209.753C361.058 230.742 356.324 246.23 351.579 261.756C345.448 281.814 339.299 301.934 357.716 334.057C383.853 379.647 419.957 519.438 434.741 583.634L343.186 608.166L204.211 89.5043Z" fill="white"/>
<ellipse rx="31.5961" ry="44.505" transform="matrix(-0.761754 0.647867 0.647867 0.761754 177.226 272.303)" fill="url(#paint0_radial_2_17)"/>
<ellipse rx="31.5961" ry="44.505" transform="matrix(-0.952397 -0.30486 -0.30486 0.952397 325.01 235.056)" fill="url(#paint1_radial_2_17)"/>
<path d="M407.705 477.095C349.172 523.494 259.572 536.42 222.692 530.891L228.95 552.515C313.794 570.625 386.963 523.692 413.884 498.541L407.705 477.095Z" fill="#005BBB"/>
<path d="M413.884 497.814C344.714 556.582 265.684 557.306 228.697 552.206L233.959 569.056C319.154 586.177 393.646 547.265 420.063 521.804L413.884 497.814Z" fill="#FFD500"/>
<ellipse opacity="0.5" cx="285.679" cy="132.716" rx="5.86084" ry="9.20989" transform="rotate(9.05007 285.679 132.716)" fill="white"/>
<ellipse opacity="0.5" cx="152.643" cy="170.518" rx="5.86084" ry="9.20989" transform="rotate(9.05007 152.643 170.518)" fill="white"/>
<path d="M332.873 567.344C172.646 598.536 207 815.691 244.205 920.37C431.599 981.67 781.303 1044.08 680.971 803.339C580.639 562.594 448.764 534.535 395.368 550.598L332.873 567.344Z" fill="white"/>
<path d="M406.251 473.46C454.212 467.977 532.887 482.92 465.539 577.565C398.687 671.513 385.745 730.585 421.636 718.963C421.895 718.866 422.164 718.776 422.442 718.693C422.171 718.787 421.902 718.877 421.636 718.963C411.659 722.691 416.222 736.144 411.068 741.601C371.118 747.953 370.374 694.258 459.602 576.465C481.076 545.147 495.42 484.166 410.756 487.45L406.251 473.46Z" fill="#FFD500"/>
<path d="M399.839 453.208C448.727 442.041 502.059 437.652 447.722 538.834C393.942 638.979 450.99 631.487 487.256 614.844C487.599 614.666 487.972 614.493 488.376 614.324C488.005 614.498 487.631 614.671 487.256 614.844C478.326 619.457 489.142 626.785 484.743 632.7C444.315 643.755 379.042 640.387 441.377 538.468C458.516 505.084 491.059 451.313 403.706 464.737L399.839 453.208Z" fill="#005BBB"/>
<path d="M180.678 205.54C160.97 143.532 218.386 116.914 218.338 117.758C283.241 117.758 292.296 173.332 292.296 181.916C292.296 205.54 334.24 215.184 329.422 241.093C324.604 267.002 337.571 314.802 337.493 350.594C337.431 379.227 326.629 387.02 321.236 387.337C316.92 388.629 314.05 389.027 304.999 391.688C269.151 402.226 254.216 355.506 208.594 309.723C162.973 263.94 205.314 283.049 180.678 205.54Z" fill="#FF6B0A"/>
<path d="M298.836 368.686C269.294 373.895 242.805 312.319 233.253 280.88C249.946 272.218 286.935 256.441 301.356 262.632C319.381 270.37 335.763 362.176 298.836 368.686Z" fill="#1F0C02"/>
<path d="M302.524 358.997C322.052 351.058 303.827 308.536 292.273 288.268L253.035 298.782C261.394 322.162 282.995 366.937 302.524 358.997Z" fill="#724B3B"/>
<path d="M296.046 343.768C299.418 339.668 281.596 297.534 272.264 276.98L263.891 280.211C273.204 303.105 292.674 347.867 296.046 343.768Z" fill="#6B3B28"/>
<path d="M215.001 259.667C223.367 212.954 205.838 192.997 196.028 188.859C215.605 140.688 256.803 154.689 274.955 167.71C262.83 214.464 271.267 177.399 302.948 236.102C328.293 283.064 299.757 308.982 282.321 316.071C256.395 316.734 206.636 306.381 215.001 259.667Z" fill="#ED5E00"/>
<path d="M311.021 256.373C248.016 205.967 226.23 261.047 223.212 294.887C230.805 306.387 253.49 326.702 283.482 315.959C313.474 305.215 314.338 271.759 311.021 256.373Z" fill="#FF8E3D"/>
<path d="M257.359 262.276C255.42 257.066 250.962 247.664 248.635 251.735C246.309 255.806 253.482 260.459 257.359 262.276Z" fill="#FD7411"/>
<path d="M267.531 259.57C265.757 254.302 263.301 244.19 267.671 245.888C272.042 247.586 269.399 255.717 267.531 259.57Z" fill="#FD7411"/>
<path d="M227.918 41.2787L244.274 85.9872C225.664 116.811 176.909 120.397 154.858 118.337L138.864 72.5383L227.918 41.2787Z" fill="#373500"/>
<path d="M244.274 85.9869C245.123 112.279 227.263 153.449 154.857 117.973L244.274 85.9869Z" fill="#373500"/>
<ellipse cx="183.5" cy="56.8877" rx="47.2695" ry="8.14809" transform="rotate(-19.0312 183.5 56.8877)" fill="#373500"/>
<path d="M227.918 41.2787L244.274 85.9872C225.664 116.811 176.909 120.397 154.858 118.337L138.864 72.5383C138.864 72.5383 146.555 71.5739 151.223 69.9939C156.815 68.1007 164.672 63.0877 164.672 63.0877L203.201 94.3473V47.8214C203.201 47.8214 211.584 49.2086 216.65 47.8214C221.557 46.4774 227.918 41.2787 227.918 41.2787Z" fill="#4B4800"/>
<path d="M182.569 64.1272C182.862 64.172 183.103 64.1947 183.331 64.257C185.227 64.7184 186.639 65.6631 187.745 67.4594C188.214 68.2205 188.609 69.0523 189.03 69.8383C189.4 70.5353 189.764 71.2187 190.146 71.9095C190.248 72.0874 190.257 72.1815 190.077 72.3084C189.687 72.5611 189.429 72.9595 189.444 73.4955C189.449 73.971 189.663 74.3206 190.011 74.5348C190.364 74.7626 190.742 74.7304 191.106 74.557C191.285 74.4635 191.371 74.3196 191.39 74.0793C191.557 72.245 191.369 70.464 190.874 68.7113C190.46 67.2629 189.806 65.9392 189.206 64.6041C188.867 63.8413 188.547 63.0525 188.184 62.3023C187.961 61.8251 187.786 61.3565 187.7 60.8244C187.614 60.2923 187.628 59.7574 187.767 59.2072C188.227 59.4123 188.607 59.7416 188.884 60.1739C189.137 60.5853 189.355 61.0489 189.549 61.4914C189.76 61.9748 189.911 62.4893 190.092 62.9716C190.57 64.2551 191.036 65.5448 191.55 66.8096C192.418 68.9114 193.685 70.6403 195.364 71.9568C195.583 72.1392 195.777 72.12 195.993 71.9744C196.545 71.6208 196.771 70.8932 196.522 70.2812C196.29 69.71 195.638 69.4238 195.065 69.6896C194.857 69.7819 194.812 69.7065 194.758 69.5037C194.462 68.4548 194.149 67.3985 193.842 66.3558C193.503 65.1647 193.104 64.0047 193.079 62.732C193.048 61.0507 193.455 59.701 194.253 58.2793C194.315 58.1812 194.376 58.0832 194.463 57.9393C194.512 58.0617 194.545 58.1433 194.579 58.2249C196.716 63.4881 198.766 68.5337 200.904 73.797C201.025 74.0962 201.025 74.0962 200.774 74.227C199.831 74.7194 198.875 75.218 197.931 75.7104C197.764 75.7977 197.714 75.8895 197.755 76.0986C198.066 77.6835 197.907 79.2169 197.232 80.6568C197.095 80.9594 197.003 81.3039 196.888 81.6274C196.063 81.2007 195.112 81.1038 194.321 80.511C193.674 80.0242 193.083 79.4592 192.631 78.739C192.523 78.5809 192.429 78.5639 192.286 78.6387C191.318 79.1435 190.362 79.6421 189.395 80.147C189.227 80.2342 189.139 80.2308 189.051 80.0132C186.902 74.7228 184.836 69.6364 182.687 64.346C182.652 64.3312 182.63 64.2768 182.569 64.1272ZM184.604 65.9996C184.585 66.0256 184.55 66.0443 184.531 66.0704C184.57 66.1656 184.609 66.2608 184.647 66.356C185.68 68.8992 186.63 71.2384 187.663 73.7816C187.835 74.2032 187.835 74.2032 188.217 74.0038C188.36 73.929 188.415 73.8508 188.385 73.6689C188.324 73.0909 188.456 72.5605 188.751 72.11C188.874 71.914 188.848 71.7791 188.747 71.6012C188.258 70.7189 187.752 69.8292 187.299 68.9282C186.818 67.9926 186.328 67.3579 185.55 66.7255C185.239 66.4591 184.921 66.2461 184.604 65.9996ZM194.465 60.9046C194.441 60.9171 194.424 60.9097 194.4 60.9222C194.373 61.0684 194.345 61.2146 194.329 61.3545C194.195 62.4136 194.072 63.2523 194.345 64.2802C194.699 65.579 195.077 66.8653 195.442 68.1579C195.485 68.3335 195.565 68.4237 195.747 68.4441C196.246 68.4968 196.682 68.7144 197.042 69.1366C197.207 69.3304 197.361 69.3162 197.644 69.0862C197.818 68.9457 197.68 68.8198 197.631 68.6974C196.581 66.1134 195.614 63.7334 194.559 61.1358C194.538 61.048 194.505 60.9664 194.465 60.9046ZM191.392 75.7594C191.326 75.777 191.249 75.8008 191.154 75.8172C190.324 76.0195 189.568 75.9033 188.97 75.1439C188.884 75.0402 188.814 75.0108 188.712 75.0805C188.629 75.1241 188.545 75.1677 188.461 75.2113C188.342 75.2737 188.316 75.353 188.371 75.489C188.786 76.509 189.206 77.5426 189.632 78.5564C189.654 78.6108 189.799 78.6833 189.847 78.6584C190.498 78.3354 191.155 77.9926 191.794 77.6425C191.842 77.6175 191.899 77.4725 191.889 77.4118C191.727 76.8701 191.565 76.3284 191.392 75.7594ZM196.505 73.0918C196.774 73.6109 197.044 74.0965 197.307 74.602C197.38 74.7454 197.475 74.6955 197.571 74.6457C198.18 74.3278 198.772 74.0026 199.387 73.6983C199.578 73.5986 199.605 73.4858 199.51 73.288C199.128 72.3831 198.77 71.4656 198.394 70.5408C198.223 70.1192 198.223 70.1192 197.852 70.3124C197.745 70.3685 197.649 70.4184 197.674 70.5867C197.785 71.5013 197.448 72.2045 196.873 72.7847C196.746 72.9003 196.608 72.9887 196.505 73.0918ZM192.414 70.578C192.505 71.7997 192.585 72.9942 192.458 74.2142C192.944 74.3066 193.401 74.3978 193.865 74.4693C193.929 74.4851 194.038 74.3956 194.081 74.3236C194.303 73.944 194.49 73.5496 194.713 73.17C194.781 73.0521 194.777 72.9716 194.667 72.8804C193.888 72.2814 193.225 71.5396 192.587 70.7519C192.523 70.7026 192.466 70.6335 192.414 70.578ZM193.564 78.0052C193.803 78.7373 195.035 79.8089 195.501 79.7801C195.507 79.7602 195.514 79.7404 195.514 79.7404C195.226 79.0332 194.951 78.3198 194.657 77.6324C194.635 77.578 194.518 77.54 194.465 77.5514C194.155 77.68 193.862 77.8494 193.564 78.0052ZM196.515 79.2837C196.891 78.6757 196.897 76.9089 196.593 76.4085C196.33 76.5456 196.043 76.6952 195.78 76.8323C195.625 76.9133 195.605 77.0063 195.671 77.1695C195.903 77.7407 196.135 78.3119 196.367 78.8831C196.405 79.0117 196.455 79.1341 196.515 79.2837ZM193.545 76.7127C193.701 76.6316 193.873 76.558 194.018 76.4497C194.065 76.4248 194.117 76.2661 194.088 76.2316C193.774 75.6706 193.229 75.3283 192.672 75.4541C192.553 75.483 192.505 75.5413 192.531 75.6762C192.632 76.0683 192.745 76.4542 192.852 76.86C192.895 77.0022 192.989 77.0192 193.097 76.9631C193.235 76.8747 193.39 76.7937 193.545 76.7127ZM195.744 75.5658C195.887 75.491 196.018 75.4225 196.162 75.3477C196.311 75.2865 196.367 75.1749 196.271 75.0105C196.097 74.6892 195.923 74.3679 195.737 74.0529C195.647 73.9021 195.559 73.8987 195.438 74.0279C195.044 74.4144 194.865 75.1839 195.068 75.7205C195.09 75.7749 195.212 75.8265 195.266 75.8151C195.439 75.7415 195.588 75.6469 195.744 75.5658Z" fill="#FFD500"/>
</g>
</g>
<defs>
<radialGradient id="paint0_radial_2_17" cx="0" cy="0" r="1" gradientUnits="userSpaceOnUse" gradientTransform="translate(31.5961 44.505) rotate(90) scale(44.505 31.5961)">
<stop stop-color="#FFBBBB"/>
<stop offset="1" stop-color="#FFBBBB" stop-opacity="0"/>
</radialGradient>
<radialGradient id="paint1_radial_2_17" cx="0" cy="0" r="1" gradientUnits="userSpaceOnUse" gradientTransform="translate(31.5961 44.505) rotate(90) scale(44.505 31.5961)">
<stop stop-color="#FFBBBB"/>
<stop offset="1" stop-color="#FFBBBB" stop-opacity="0"/>
</radialGradient>
<clipPath id="clip0_2_17">
<rect width="640" height="720" fill="white"/>
</clipPath>
<clipPath id="clip1_2_17">
<rect width="637" height="735" fill="white" transform="translate(32 17.2629)"/>
</clipPath>
</defs>
</svg>
