<svg aria-hidden="true" style="position: absolute; width: 0; height: 0; overflow: hidden;" version="1.1" xmlns="http://www.w3.org/2000/svg" xmlns:xlink="http://www.w3.org/1999/xlink">
<defs>
<symbol id="icon-close" viewBox="0 0 32 32">
<path d="M6.869 6.869c0.3-0.3 0.707-0.468 1.131-0.468s0.831 0.168 1.131 0.468l6.869 6.869 6.869-6.869c0.148-0.153 0.324-0.275 0.519-0.359s0.405-0.128 0.618-0.13c0.212-0.002 0.423 0.039 0.62 0.119s0.375 0.199 0.525 0.349c0.15 0.15 0.269 0.329 0.349 0.526s0.121 0.407 0.119 0.62c-0.002 0.212-0.046 0.422-0.13 0.618s-0.206 0.372-0.359 0.519l-6.869 6.869 6.869 6.869c0.291 0.302 0.453 0.706 0.449 1.125s-0.172 0.821-0.469 1.117-0.698 0.465-1.117 0.469c-0.419 0.004-0.824-0.158-1.125-0.449l-6.869-6.869-6.869 6.869c-0.302 0.291-0.706 0.453-1.125 0.449s-0.821-0.172-1.117-0.469-0.465-0.698-0.469-1.117c-0.004-0.419 0.158-0.824 0.449-1.125l6.869-6.869-6.869-6.869c-0.3-0.3-0.468-0.707-0.468-1.131s0.168-0.831 0.468-1.131z"></path>
</symbol>
<symbol id="icon-tryzub" viewBox="0 0 20 32">
<path fill="#f2cd13" style="fill: var(--color1, #f2cd13)" d="M18.41 3.193c-5.395 4.898-4.565 12.517-4.527 12.844l0.075 0.617 0.641 0.073c0.189 0.036 1.283 0.254 1.132 1.887-0.113 1.415-1.773 1.633-2.452 1.705-0.566-0.726-2.414-3.737-2.603-12.372 0-0.435 0-0.871 0-1.306 0 0 0.151-3.084 0.302-4.39l-1.094-2.249-1.132 2.177c0.151 1.306 0.302 4.39 0.302 4.39 0 0.435 0 0.871 0 1.306-0.189 8.635-2.037 11.683-2.603 12.372-0.717-0.036-2.339-0.29-2.452-1.705-0.151-1.633 0.943-1.85 1.132-1.887l0.641-0.073 0.075-0.617c0.038-0.327 0.868-7.946-4.527-12.844l-1.32-1.125v23.474h5.47c0.453 3.447 3.735 6.023 3.886 6.131l0.49 0.399 0.49-0.399c0.151-0.109 3.471-2.685 3.886-6.131h5.47v-23.474l-1.283 1.197zM4.338 15.347c-0.792 0.29-1.735 1.052-1.886 2.503h-0.868v-12.118c2.754 3.556 2.792 8.091 2.754 9.615zM5.357 23.22l0.038 0.726h-3.81v-4.608h0.981c0.415 1.451 1.773 2.068 3.018 2.322-0.226 0.726-0.226 1.451-0.226 1.56zM6.941 23.184c0-0.399 0.038-0.98 0.226-1.342 1.396 0.29 1.773 1.379 1.886 2.141h-2.075l-0.038-0.798zM9.092 29.206c-0.792-0.907-1.735-2.213-1.999-3.737h1.999v3.737zM10.072 21.551c-0.075 0.073-0.151 0.181-0.226 0.29-0.075-0.109-0.151-0.181-0.226-0.29-0.415-0.435-0.905-0.798-1.471-1.016 0.528-0.871 1.169-2.322 1.698-4.753 0.528 2.431 1.169 3.918 1.698 4.753-0.566 0.218-1.056 0.544-1.471 1.016zM10.638 29.17v-3.701h1.999c-0.226 1.488-1.169 2.794-1.999 3.701zM12.789 23.184l-0.038 0.762h-2.075c0.113-0.762 0.49-1.85 1.886-2.141 0.189 0.399 0.226 0.98 0.226 1.379zM15.392 15.347c-0.075-1.488 0-6.023 2.754-9.615v12.118h-0.868c-0.151-1.488-1.056-2.213-1.886-2.503zM14.335 23.946l0.038-0.726c0-0.109 0.038-0.834-0.189-1.56 1.207-0.218 2.565-0.871 3.018-2.322h0.981v4.608h-3.848z"></path>
</symbol>
<symbol id="icon-logo" viewBox="0 0 100 32">
<path fill="#ff6b0a" style="fill: var(--color2, #ff6b0a)" d="M43.846 1.104h-43.846v30h43.846l11.538-15-11.538-15zM19.657 14.075c-0.068-0.055-0.135-0.109-0.202-0.163-0.169-0.137-0.335-0.271-0.506-0.4-0.466-0.356-0.972-0.639-1.553-0.765-0.641-0.14-1.288-0.191-1.928 0.003-0.912 0.276-1.547 0.876-1.967 1.713-0.348 0.696-0.441 1.434-0.35 2.201 0.073 0.601 0.266 1.158 0.621 1.652 0.545 0.759 1.288 1.198 2.217 1.314 0.836 0.105 1.646 0 2.413-0.366 0.262-0.125 0.262-0.128 0.262-0.417v-0.005c0-0.070 0-0.141 0-0.211v-0c0-0.14 0.001-0.28-0-0.42-0-0.028 0-0.052 0-0.073 0.001-0.058 0.001-0.088-0.013-0.104s-0.048-0.016-0.116-0.015c-0.017 0-0.036 0-0.057 0h-2.431c-0.022 0-0.041 0-0.058 0h-0c-0.068 0.001-0.101 0.001-0.117-0.015s-0.014-0.046-0.013-0.105c0-0.020 0.001-0.043 0.001-0.070-0.001-0.647-0.001-1.294-0-1.94v-0.005c0-0.322 0-0.643 0-0.965l0-0.016 0.001-0.019c0.001-0.024 0.001-0.049-0.001-0.072-0.005-0.057 0.015-0.088 0.078-0.082 0.024 0.002 0.048 0.001 0.073 0.001h0c0.012-0 0.024-0.001 0.036-0.001h6.146c0.040 0 0.074 0.008 0.068 0.059-0.003 0.031 0.017 0.051 0.036 0.072 0.024 0.025 0.049 0.052 0.035 0.097-0.012 0.039-0.009 0.082-0.006 0.125v0c0.001 0.019 0.003 0.039 0.003 0.058l-0 1.105c-0 1.474-0 2.948 0.003 4.422 0 0.12-0.037 0.196-0.128 0.271-1.144 0.947-2.431 1.609-3.887 1.937-0.861 0.194-1.733 0.248-2.614 0.177-1.041-0.083-2.030-0.349-2.944-0.855-1.677-0.927-2.733-2.335-3.219-4.172-0.214-0.812-0.279-1.639-0.211-2.473 0.255-3.095 2.433-5.51 5.35-6.182 0.833-0.193 1.674-0.22 2.522-0.163 0.65 0.045 1.29 0.146 1.916 0.331 0.937 0.279 1.764 0.759 2.516 1.375 0.088 0.072 0.175 0.145 0.26 0.219 0.108 0.092 0.111 0.145 0.017 0.259-0.474 0.57-0.948 1.138-1.423 1.706-0.237 0.285-0.474 0.57-0.712 0.853l-0.009 0.012-0.009 0.012c-0.026 0.035-0.054 0.073-0.099 0.1zM31.752 9.181c1.764 0.014 3.47 0.634 4.902 1.937 1.112 1.013 1.793 2.276 2.066 3.75 0.303 1.64 0.085 3.211-0.729 4.675-0.966 1.737-2.44 2.851-4.364 3.354-1.655 0.434-3.297 0.346-4.881-0.311-2.063-0.858-3.396-2.398-4.021-4.514-0.559-1.893-0.356-3.733 0.644-5.449 0.974-1.672 2.44-2.72 4.314-3.208 0.646-0.168 1.254-0.234 2.069-0.236zM31.333 12.703c1.963-0.005 3.247 1.1 3.597 2.63 0.212 0.922 0.118 1.819-0.336 2.657-0.534 0.984-1.367 1.557-2.488 1.685-1.084 0.125-2.030-0.182-2.803-0.961-0.495-0.499-0.794-1.107-0.921-1.794-0.161-0.87-0.062-1.713 0.362-2.493 0.624-1.15 1.621-1.702 2.589-1.723z"></path>
<path fill="#010101" style="fill: var(--color3, #010101)" d="M99.231 1.104v30h-43.846v-30h43.846zM69.769 9.364v13.056c0 0.014 0 0.028 0.001 0.042v0c0.001 0.028 0.001 0.055-0.001 0.081-0.006 0.076 0.014 0.12 0.101 0.108 0.021-0.002 0.041-0.001 0.062-0.001 0.010 0 0.021 0.001 0.031 0.001 0.366 0 0.731 0 1.097 0h0.003c0.732 0 1.464 0.001 2.196-0 0.023 0 0.043 0 0.062 0 0.070 0.001 0.105 0.001 0.121-0.016s0.015-0.048 0.013-0.109v-0c-0.001-0.021-0.001-0.045-0.001-0.073v-13.072c0-0.010-0-0.021-0.001-0.031-0.001-0.021-0.001-0.041 0.001-0.062 0.008-0.077-0.019-0.117-0.102-0.108-0.016 0.002-0.034 0.001-0.051 0.001l-0.006-0c-0.007-0-0.014-0-0.020-0-0.369 0-0.739-0-1.109-0h-0c-0.74-0-1.48-0.001-2.219 0-0.022 0-0.041-0-0.058-0.001h-0c-0.061-0.001-0.091-0.001-0.107 0.014s-0.015 0.046-0.014 0.108c0 0.017 0.001 0.037 0.001 0.060zM88.124 9.183h-5.497c-1.832 0-3.664 0-5.494-0.002-0.007 0-0.015 0-0.022 0-0.006 0-0.013 0-0.019 0-0.027 0-0.055 0.001-0.082-0-0.062-0.003-0.084 0.026-0.079 0.083 0.001 0.017 0.001 0.034 0 0.051-0 0.009-0 0.017-0 0.026v3.126l-0 0.032c-0 0.067-0 0.1 0.016 0.116s0.048 0.015 0.11 0.015l0.043-0h3.453c0.113 0 0.168 0 0.196 0.028s0.027 0.081 0.027 0.188v9.639c0 0.018-0 0.035-0.001 0.049v0c-0.001 0.055-0.001 0.084 0.013 0.099 0.016 0.017 0.049 0.016 0.119 0.016l0.034-0h3.314c0.104 0 0.155 0 0.181-0.026s0.025-0.075 0.025-0.174v-9.639c0-0.021-0-0.039-0.001-0.056v-0c-0.001-0.059-0.001-0.091 0.014-0.107 0.016-0.017 0.052-0.017 0.125-0.017l0.046 0h3.515c0.152 0 0.152 0 0.153-0.149v-3.111c0-0.021 0-0.040 0-0.057v-0c0.001-0.068 0.001-0.101-0.015-0.118s-0.049-0.016-0.115-0.015h-0c-0.017 0-0.037 0.001-0.059 0.001z"></path>
</symbol>
</defs>
</svg>